<?xml version="1.0" encoding="UTF-8"?>
<!-- Generator: Adobe Illustrator 24.2.3, SVG Export Plug-In . SVG Version: 6.00 Build 0)  -->
<svg version="1.1" id="Capa_1" xmlns="http://www.w3.org/2000/svg" xmlns:xlink="http://www.w3.org/1999/xlink" x="0px" y="0px" viewBox="0 0 275.7 129.45" style="enable-background:new 0 0 275.7 129.45;" xml:space="preserve">
<style type="text/css">
	.st0{fill:#6F1D46;}
	.st1{fill:#7B868C;}
</style>
<g>
	<g>
		<path class="st0" d="M52.89,56.01c-0.02,0.01-0.05,0.03-0.07,0.04c-0.02,0.02-0.05,0.03-0.07,0.05c0,0-0.01,0.01-0.02,0.01    c-0.01,0.01-0.02,0.02-0.03,0.03c-0.02,0.02-0.05,0.05-0.06,0.07c-0.01,0.02-0.03,0.04-0.04,0.06c-0.02,0.02-0.03,0.05-0.04,0.07    c-0.01,0.02-0.02,0.05-0.03,0.07c-0.01,0.02-0.02,0.05-0.03,0.07c-0.01,0.02-0.01,0.05-0.02,0.07c0,0.02-0.01,0.05-0.01,0.08    c0,0.03,0,0.05,0,0.08c0,0.03,0,0.05,0,0.08c0,0.03,0.01,0.05,0.01,0.08c0,0.02,0.01,0.05,0.02,0.07    c0.01,0.03,0.02,0.06,0.03,0.08c0.01,0.01,0.01,0.03,0.02,0.04c0,0.01,0.01,0.01,0.01,0.01c0.03,0.06,0.06,0.11,0.11,0.16    l0.01,0.01c0,0,0,0,0,0l3.23,3.63c0,0,0,0,0.01,0.01c0.01,0.01,0.03,0.02,0.04,0.03c0.04,0.04,0.08,0.07,0.12,0.1    c0.02,0.01,0.04,0.02,0.05,0.03c0.04,0.02,0.09,0.04,0.13,0.06c0.02,0.01,0.03,0.01,0.05,0.02c0.06,0.02,0.13,0.03,0.19,0.03    c0,0,0,0,0,0c0,0,0,0,0,0c0,0,0,0,0,0c0.05,0,0.11-0.01,0.16-0.02c0.02,0,0.03-0.01,0.05-0.01c0.04-0.01,0.08-0.02,0.12-0.04    c0.01,0,0.02-0.01,0.03-0.01c0.02-0.01,1.8-0.89,3.53-0.89c1.73,0,3.52,0.88,3.53,0.89c0.01,0.01,0.02,0.01,0.04,0.01    c0.03,0.01,0.05,0.02,0.08,0.03c0.02,0.01,0.04,0.01,0.06,0.02c0.03,0.01,0.06,0.01,0.09,0.01c0.02,0,0.04,0,0.05,0    c0.01,0,0.02,0,0.03,0c0.02,0,0.04,0,0.05-0.01c0.03,0,0.05,0,0.08-0.01c0.03,0,0.05-0.01,0.08-0.02    c0.02-0.01,0.05-0.01,0.07-0.02c0.03-0.01,0.05-0.02,0.08-0.03c0.02-0.01,0.05-0.02,0.07-0.04c0.02-0.01,0.04-0.03,0.06-0.04    c0.02-0.02,0.05-0.04,0.07-0.06c0.01-0.01,0.02-0.02,0.04-0.03l3.24-3.65c0.01-0.01,0.01-0.01,0.01-0.02    c0.02-0.02,0.03-0.04,0.05-0.07c0.02-0.02,0.03-0.05,0.04-0.07c0-0.01,0.01-0.01,0.01-0.02c0.01-0.01,0.01-0.03,0.02-0.04    c0.01-0.03,0.02-0.06,0.03-0.08c0.01-0.02,0.01-0.05,0.02-0.07c0.01-0.03,0.01-0.05,0.01-0.08c0-0.02,0-0.05,0-0.07    c0-0.03,0-0.05,0-0.08c0-0.02-0.01-0.05-0.01-0.07c-0.01-0.03-0.01-0.05-0.02-0.08c-0.01-0.02-0.02-0.04-0.02-0.07    c-0.01-0.03-0.02-0.05-0.03-0.07c-0.01-0.02-0.03-0.04-0.04-0.07c-0.01-0.02-0.03-0.04-0.04-0.06c-0.02-0.02-0.04-0.04-0.06-0.07    c-0.01-0.01-0.02-0.02-0.03-0.03c-0.01,0-0.01-0.01-0.02-0.01c-0.02-0.02-0.05-0.03-0.07-0.05c-0.02-0.02-0.04-0.03-0.07-0.04    c-0.01,0-0.01-0.01-0.02-0.01c-0.15-0.08-3.77-1.87-7.48-1.87c-3.71,0-7.33,1.79-7.48,1.87C52.9,56,52.9,56.01,52.89,56.01z     M66.2,57l-2.13,2.4c-0.77-0.31-2.21-0.81-3.68-0.81c-1.47,0-2.91,0.49-3.68,0.81L54.58,57c1.25-0.5,3.55-1.28,5.81-1.28    C62.65,55.72,64.95,56.5,66.2,57z"/>
		<path class="st0" d="M63.66,62.23c-0.07-0.03-1.64-0.81-3.27-0.81c-1.63,0-3.2,0.78-3.27,0.81c-0.39,0.2-0.55,0.67-0.35,1.06    c0.2,0.39,0.67,0.55,1.06,0.36c0.01-0.01,1.32-0.65,2.56-0.65c1.25,0,2.55,0.64,2.56,0.65c0.11,0.06,0.23,0.08,0.35,0.08    c0.29,0,0.57-0.16,0.71-0.44C64.21,62.9,64.05,62.43,63.66,62.23z"/>
		<path class="st0" d="M52.48,34.16c0,0.03,0.01,0.05,0.01,0.08c0,0.02,0.01,0.05,0.02,0.07c0.01,0.03,0.02,0.06,0.03,0.08    c0.01,0.01,0.01,0.03,0.02,0.04c0,0.01,0.01,0.01,0.01,0.02c0.01,0.02,0.03,0.05,0.04,0.07c0.02,0.02,0.03,0.05,0.05,0.07    c0,0.01,0.01,0.01,0.01,0.02l3.24,3.65c0,0,0,0,0.01,0.01c0.01,0.01,0.03,0.02,0.04,0.03c0.04,0.04,0.08,0.07,0.12,0.1    c0.02,0.01,0.04,0.02,0.05,0.03c0.04,0.02,0.09,0.04,0.13,0.06c0.02,0.01,0.03,0.01,0.05,0.02c0.06,0.02,0.13,0.03,0.19,0.03    c0,0,0,0,0,0c0,0,0,0,0,0c0,0,0,0,0,0c0.05,0,0.11-0.01,0.16-0.02c0.02,0,0.03-0.01,0.05-0.01c0.04-0.01,0.08-0.02,0.12-0.04    c0.01,0,0.02-0.01,0.03-0.01c0.02-0.01,1.8-0.89,3.53-0.89c1.73,0,3.52,0.88,3.53,0.89c0.01,0.01,0.02,0.01,0.04,0.01    c0.03,0.01,0.05,0.02,0.08,0.03c0.02,0.01,0.04,0.01,0.06,0.02c0.03,0.01,0.06,0.01,0.09,0.01c0.02,0,0.04,0,0.05,0    c0.01,0,0.02,0,0.03,0c0.02,0,0.04,0,0.05-0.01c0.03,0,0.05,0,0.08-0.01c0.03,0,0.05-0.01,0.08-0.02    c0.02-0.01,0.05-0.01,0.07-0.02c0.03-0.01,0.05-0.02,0.08-0.03c0.02-0.01,0.05-0.02,0.07-0.04c0.02-0.01,0.04-0.03,0.06-0.04    c0.02-0.02,0.05-0.04,0.07-0.06c0.01-0.01,0.02-0.02,0.04-0.03l3.23-3.63c0,0,0,0,0,0l0.01-0.01c0.04-0.05,0.08-0.1,0.11-0.16    c0-0.01,0.01-0.01,0.01-0.01c0.01-0.01,0.01-0.03,0.02-0.04c0.01-0.03,0.02-0.06,0.03-0.08c0.01-0.02,0.01-0.05,0.02-0.07    c0.01-0.03,0.01-0.05,0.01-0.08c0-0.02,0-0.05,0-0.07c0-0.03,0-0.05,0-0.08c0-0.02-0.01-0.05-0.01-0.07    c-0.01-0.03-0.01-0.05-0.02-0.08c-0.01-0.02-0.02-0.04-0.02-0.07c-0.01-0.03-0.02-0.05-0.03-0.07c-0.01-0.02-0.03-0.04-0.04-0.07    c-0.01-0.02-0.03-0.04-0.04-0.06c-0.02-0.02-0.04-0.04-0.06-0.07c-0.01-0.01-0.02-0.02-0.03-0.03c-0.01,0-0.01-0.01-0.02-0.01    c-0.02-0.02-0.05-0.03-0.07-0.05c-0.02-0.02-0.04-0.03-0.07-0.04c-0.01,0-0.01-0.01-0.02-0.01c-0.15-0.08-3.77-1.87-7.48-1.87    c-3.71,0-7.33,1.79-7.48,1.87c-0.01,0-0.01,0.01-0.02,0.01c-0.02,0.01-0.05,0.03-0.07,0.04c-0.02,0.02-0.05,0.03-0.07,0.05    c-0.01,0-0.01,0.01-0.02,0.01c-0.01,0.01-0.02,0.02-0.03,0.03c-0.02,0.02-0.05,0.05-0.06,0.07c-0.01,0.02-0.03,0.04-0.04,0.06    c-0.02,0.02-0.03,0.05-0.04,0.07c-0.01,0.02-0.02,0.05-0.03,0.07c-0.01,0.02-0.02,0.05-0.03,0.07c-0.01,0.02-0.01,0.05-0.02,0.07    c0,0.02-0.01,0.05-0.01,0.08c0,0.03,0,0.05,0,0.08C52.47,34.11,52.47,34.14,52.48,34.16z M66.2,34.37l-2.13,2.4    c-0.77-0.31-2.21-0.81-3.68-0.81c-1.47,0-2.91,0.49-3.68,0.81l-2.13-2.4c1.25-0.5,3.55-1.28,5.81-1.28    C62.65,33.1,64.95,33.87,66.2,34.37z"/>
		<path class="st0" d="M57.83,41.03c0.01-0.01,1.32-0.65,2.56-0.65c1.25,0,2.55,0.64,2.56,0.65c0.11,0.06,0.23,0.08,0.35,0.08    c0.29,0,0.57-0.16,0.71-0.44c0.2-0.39,0.04-0.87-0.35-1.06c-0.07-0.03-1.64-0.81-3.27-0.81c-1.63,0-3.2,0.78-3.27,0.81    c-0.39,0.2-0.55,0.67-0.35,1.06C56.96,41.06,57.44,41.22,57.83,41.03z"/>
		<path class="st0" d="M43.37,44.83c-0.02,0.01-0.05,0.03-0.07,0.04c-0.02,0.02-0.05,0.03-0.07,0.05c0,0-0.01,0.01-0.02,0.01    c-0.01,0.01-0.02,0.02-0.03,0.03c-0.02,0.02-0.05,0.05-0.06,0.07c-0.01,0.02-0.03,0.04-0.04,0.06c-0.02,0.02-0.03,0.05-0.04,0.07    c-0.01,0.02-0.02,0.05-0.03,0.07C43,45.25,43,45.28,42.99,45.3c-0.01,0.02-0.01,0.05-0.02,0.07c0,0.02-0.01,0.05-0.01,0.07    c0,0.03,0,0.05,0,0.08c0,0.03,0,0.05,0,0.07c0,0.03,0.01,0.05,0.01,0.08c0,0.02,0.01,0.05,0.02,0.07    c0.01,0.03,0.02,0.06,0.03,0.08c0.01,0.01,0.01,0.03,0.02,0.04c0,0.01,0.01,0.01,0.01,0.01c0.03,0.06,0.06,0.11,0.11,0.16    l0.01,0.01c0,0,0,0,0,0l3.23,3.63c0,0,0,0,0.01,0.01c0.01,0.01,0.03,0.02,0.04,0.03c0.04,0.04,0.08,0.07,0.12,0.1    c0.02,0.01,0.04,0.02,0.05,0.03c0.04,0.02,0.09,0.04,0.13,0.06c0.02,0.01,0.03,0.01,0.05,0.02c0.06,0.02,0.13,0.03,0.19,0.03    c0,0,0,0,0,0c0,0,0,0,0,0c0,0,0,0,0,0c0.05,0,0.11-0.01,0.16-0.02c0.02,0,0.03-0.01,0.05-0.01c0.04-0.01,0.08-0.02,0.12-0.04    c0.01,0,0.02-0.01,0.03-0.01c0.02-0.01,1.8-0.89,3.53-0.89c1.73,0,3.52,0.88,3.53,0.89c0.01,0.01,0.02,0.01,0.04,0.01    c0.03,0.01,0.06,0.02,0.09,0.03c0.02,0.01,0.04,0.01,0.05,0.01c0.03,0.01,0.07,0.01,0.1,0.02c0.02,0,0.03,0,0.05,0    c0.01,0,0.02,0,0.03,0c0.02,0,0.04,0,0.06-0.01c0.02,0,0.05,0,0.07-0.01c0.03,0,0.06-0.01,0.09-0.02    c0.02-0.01,0.05-0.01,0.07-0.02c0.03-0.01,0.05-0.02,0.08-0.03c0.02-0.01,0.05-0.03,0.07-0.04c0.02-0.01,0.04-0.03,0.06-0.04    c0.03-0.02,0.05-0.04,0.07-0.06c0.01-0.01,0.02-0.02,0.03-0.03l3.24-3.65c0.01-0.01,0.01-0.01,0.01-0.02    c0.02-0.02,0.03-0.04,0.05-0.06c0.02-0.02,0.03-0.05,0.05-0.07c0-0.01,0.01-0.01,0.01-0.02c0.01-0.01,0.01-0.03,0.02-0.04    c0.01-0.03,0.02-0.06,0.03-0.08c0.01-0.02,0.01-0.05,0.02-0.07c0.01-0.03,0.01-0.05,0.01-0.08c0-0.02,0-0.05,0-0.07    c0-0.03,0-0.05,0-0.08c0-0.02-0.01-0.05-0.01-0.07c-0.01-0.03-0.01-0.05-0.02-0.08c-0.01-0.02-0.02-0.04-0.02-0.07    c-0.01-0.03-0.02-0.05-0.03-0.07c-0.01-0.02-0.03-0.04-0.04-0.07c-0.01-0.02-0.03-0.04-0.04-0.06c-0.02-0.02-0.04-0.04-0.06-0.07    c-0.01-0.01-0.02-0.02-0.03-0.03c-0.01,0-0.01-0.01-0.02-0.01c-0.02-0.02-0.05-0.04-0.07-0.05c-0.02-0.01-0.04-0.03-0.06-0.04    c-0.01,0-0.01-0.01-0.02-0.01c-0.15-0.08-3.77-1.87-7.48-1.87c-3.71,0-7.33,1.79-7.48,1.87C43.39,44.82,43.38,44.82,43.37,44.83z     M56.69,45.81l-2.13,2.4c-0.77-0.31-2.21-0.81-3.68-0.81c-1.47,0-2.91,0.49-3.68,0.81l-2.13-2.4c1.25-0.5,3.55-1.28,5.81-1.28    C53.13,44.53,55.43,45.31,56.69,45.81z"/>
		<path class="st0" d="M54.15,51.05c-0.07-0.03-1.64-0.81-3.27-0.81s-3.2,0.78-3.27,0.81c-0.39,0.2-0.55,0.67-0.35,1.06    c0.2,0.39,0.67,0.55,1.06,0.36c0.01-0.01,1.32-0.65,2.56-0.65s2.55,0.64,2.56,0.65c0.11,0.06,0.23,0.08,0.35,0.08    c0.29,0,0.57-0.16,0.71-0.44C54.7,51.72,54.54,51.24,54.15,51.05z"/>
		<path class="st0" d="M66.87,98.71c-0.11-0.09-2.74-2.11-5.47-2.11c-2.08,0-4.09,1.16-4.98,1.76c-0.9-0.6-2.91-1.76-4.98-1.76    c-2.73,0-5.36,2.02-5.47,2.11c-0.35,0.27-0.41,0.77-0.14,1.11c0.16,0.2,0.39,0.31,0.63,0.31c0.17,0,0.34-0.05,0.49-0.17    c0.02-0.02,2.3-1.77,4.5-1.77c2.18,0,4.48,1.75,4.5,1.77c0.02,0.02,0.04,0.03,0.06,0.04c0.02,0.01,0.03,0.02,0.05,0.03    c0.03,0.01,0.06,0.03,0.08,0.04c0.02,0.01,0.04,0.02,0.06,0.02c0.03,0.01,0.06,0.01,0.08,0.02c0.02,0,0.05,0.01,0.07,0.01    c0.03,0,0.05,0,0.08,0c0.03,0,0.05,0,0.08,0c0.02,0,0.05-0.01,0.07-0.01c0.03-0.01,0.06-0.01,0.08-0.02    c0.02-0.01,0.04-0.01,0.06-0.02c0.03-0.01,0.06-0.02,0.08-0.04c0.02-0.01,0.04-0.02,0.05-0.03c0.02-0.01,0.04-0.02,0.06-0.04    c0.02-0.02,2.31-1.77,4.5-1.77c2.18,0,4.48,1.75,4.5,1.77c0.14,0.11,0.32,0.17,0.49,0.17c0.24,0,0.47-0.11,0.63-0.31    C67.28,99.48,67.22,98.98,66.87,98.71z"/>
		<path class="st0" d="M45.67,95.58c0,0.02,0.01,0.04,0.01,0.06c0.01,0.03,0.02,0.05,0.02,0.08c0.01,0.02,0.02,0.05,0.03,0.07    c0.01,0.02,0.02,0.04,0.03,0.06c0.02,0.03,0.03,0.05,0.05,0.08c0,0.01,0.01,0.01,0.01,0.02c0.01,0.01,0.02,0.01,0.02,0.02    c0.03,0.03,0.06,0.06,0.09,0.09c0.01,0.01,0.03,0.02,0.04,0.03c0.04,0.03,0.07,0.05,0.11,0.07c0.01,0.01,0.02,0.01,0.03,0.02    c0.1,0.05,0.21,0.08,0.33,0.08c0.03,0,0.05-0.01,0.08-0.01c0.02,0,0.04,0,0.06-0.01c0.03,0,0.06-0.01,0.09-0.02    c0.02,0,0.03-0.01,0.05-0.02c0.03-0.01,0.06-0.02,0.08-0.04c0.02-0.01,0.03-0.02,0.05-0.02c0.03-0.01,0.05-0.03,0.07-0.05    c0,0,0.01-0.01,0.02-0.01c0.02-0.02,2.32-1.77,4.5-1.77s4.48,1.75,4.5,1.77c0.01,0,0.01,0.01,0.02,0.01    c0.03,0.02,0.06,0.04,0.08,0.05c0.01,0.01,0.02,0.02,0.04,0.02c0,0,0.01,0,0.01,0.01c0.03,0.01,0.06,0.02,0.09,0.03    c0.02,0.01,0.03,0.01,0.05,0.02c0,0,0,0,0.01,0c0,0,0.01,0,0.01,0c0.03,0.01,0.05,0.01,0.08,0.01c0.02,0,0.04,0,0.06,0.01    c0.01,0,0.02,0,0.04,0c0.01,0,0.02,0,0.04,0c0.01,0,0.03,0,0.04,0c0.01,0,0.02,0,0.03,0c0.01,0,0.02,0,0.03,0    c0.02,0,0.04-0.01,0.06-0.02c0.02-0.01,0.05-0.01,0.07-0.02c0.02-0.01,0.04-0.02,0.07-0.03c0.01-0.01,0.03-0.01,0.04-0.02    c0.01,0,0.01-0.01,0.02-0.01c0,0,0,0,0,0c0.02-0.01,0.04-0.03,0.06-0.04c0.01,0,0.01-0.01,0.02-0.01c0.02-0.02,2.3-1.77,4.5-1.77    c2.18,0,4.48,1.75,4.5,1.77c0.01,0,0.01,0.01,0.02,0.01c0.03,0.02,0.06,0.04,0.09,0.06c0.01,0.01,0.03,0.02,0.04,0.02    c0.03,0.02,0.07,0.03,0.1,0.04c0.01,0,0.03,0.01,0.04,0.01c0.03,0.01,0.07,0.01,0.1,0.02c0.02,0,0.04,0,0.05,0.01    c0.01,0,0.02,0,0.03,0c0.02,0,0.04,0,0.06-0.01c0.02,0,0.04,0,0.06-0.01c0.03-0.01,0.07-0.01,0.1-0.02c0.02,0,0.03-0.01,0.05-0.02    c0.03-0.01,0.06-0.02,0.09-0.04c0.02-0.01,0.03-0.02,0.05-0.03c0.03-0.02,0.06-0.04,0.08-0.06c0.01-0.01,0.03-0.02,0.04-0.03    c0.03-0.02,0.05-0.05,0.07-0.08c0.01-0.01,0.02-0.01,0.02-0.02c0,0,0.01-0.01,0.01-0.01c0.02-0.03,0.04-0.06,0.06-0.09    c0.01-0.02,0.02-0.03,0.03-0.05c0.01-0.03,0.02-0.06,0.03-0.09c0.01-0.02,0.01-0.04,0.02-0.06c0.01-0.03,0.01-0.05,0.01-0.08    c0-0.03,0.01-0.05,0.01-0.08c0-0.01,0-0.02,0-0.03V83.83c0-0.02,0-0.03,0-0.05c0-0.03,0-0.06-0.01-0.09    c0-0.02-0.01-0.05-0.02-0.07c-0.01-0.03-0.01-0.05-0.02-0.08c-0.01-0.02-0.02-0.04-0.03-0.06c-0.01-0.03-0.03-0.05-0.04-0.08    c-0.01-0.02-0.02-0.04-0.04-0.06c-0.02-0.02-0.03-0.04-0.05-0.07c-0.02-0.02-0.04-0.03-0.05-0.05c-0.01-0.01-0.02-0.03-0.04-0.04    c-0.11-0.09-2.74-2.11-5.47-2.11c-2.07,0-4.09,1.16-4.98,1.76c-0.9-0.6-2.91-1.76-4.98-1.76c-2.73,0-5.36,2.02-5.47,2.11    c-0.02,0.01-0.03,0.03-0.04,0.04c-0.02,0.01-0.03,0.03-0.04,0.04c-0.02,0.02-0.04,0.05-0.06,0.08c-0.01,0.01-0.02,0.03-0.03,0.04    c-0.02,0.03-0.03,0.06-0.05,0.09c-0.01,0.02-0.02,0.03-0.02,0.05c-0.01,0.03-0.02,0.06-0.03,0.09c0,0.02-0.01,0.04-0.01,0.05    c-0.01,0.03-0.01,0.07-0.01,0.1c0,0.01,0,0.02,0,0.04v11.63c0,0.01,0,0.01,0,0.02C45.66,95.51,45.66,95.55,45.67,95.58z     M65.59,84.24V94c-1.04-0.59-2.6-1.28-4.19-1.28c-1.59,0-3.15,0.69-4.19,1.28v-9.77c0.7-0.47,2.47-1.55,4.19-1.55    C63.12,82.68,64.9,83.77,65.59,84.24z M55.62,84.24V94c-1.04-0.59-2.6-1.28-4.19-1.28c-1.59,0-3.15,0.69-4.19,1.28v-9.77    c0.7-0.47,2.47-1.55,4.19-1.55C53.15,82.68,54.93,83.77,55.62,84.24z"/>
		<path class="st0" d="M46.9,18.96c-1.85-4.08-3.89-7.85-6.34-7.85c-2.45,0-4.5,3.77-6.34,7.85l-0.32,0.7    c-0.87,1.85-1.77,3.76-1.77,5.73c0,1.33,1.21,2.59,2.49,2.59c0.48,0,1.14-0.25,2.35-0.72c1.16-0.45,2.75-1.07,3.59-1.07    c0.84,0,2.43,0.62,3.59,1.07c1.22,0.48,1.87,0.72,2.35,0.72c1.28,0,2.49-1.26,2.49-2.59c0-1.98-0.9-3.89-1.77-5.73L46.9,18.96z     M46.51,26.4c-0.24-0.01-1.13-0.36-1.78-0.62c-1.42-0.55-3.02-1.18-4.17-1.18c-1.14,0-2.75,0.63-4.17,1.18    c-0.65,0.25-1.54,0.6-1.78,0.62c-0.38,0-0.91-0.51-0.91-1.01c0-1.62,0.79-3.29,1.62-5.06l0.33-0.72c0.77-1.71,3.13-6.92,4.9-6.92    c1.77,0,4.12,5.21,4.9,6.92l0.33,0.72c0.83,1.77,1.62,3.44,1.62,5.06C47.41,25.89,46.88,26.4,46.51,26.4z"/>
		<path class="st0" d="M29.76,25.59c0.44,0,0.79-0.35,0.79-0.79S30.2,24,29.76,24H8.84c-0.44,0-0.79,0.35-0.79,0.79v80.89    c0,1.8,1.22,3.34,3.22,4.02l22.6,6.42c2,0.56,4.31,1.34,6.22,2.8c0.04,0.03,0.08,0.06,0.13,0.08c0.01,0.01,0.02,0.01,0.03,0.01    c0.04,0.02,0.08,0.03,0.12,0.04c0.01,0,0.03,0.01,0.04,0.01c0.05,0.01,0.1,0.02,0.16,0.02c0,0,0,0,0,0c0,0,0,0,0,0    c0.05,0,0.11-0.01,0.16-0.02c0.01,0,0.03-0.01,0.04-0.01c0.04-0.01,0.08-0.02,0.12-0.04c0.01-0.01,0.02-0.01,0.03-0.01    c0.04-0.02,0.09-0.05,0.13-0.08c1.91-1.47,4.22-2.24,6.22-2.8l22.64-6.43c1.96-0.67,3.17-2.21,3.17-4.01V24.79    c0-0.44-0.35-0.79-0.79-0.79H51.35c-0.44,0-0.79,0.35-0.79,0.79s0.35,0.79,0.79,0.79h20.13V70H41.35v-3.15    c0.03-0.13,0.03-0.27,0-0.4V28.61c0-0.44-0.35-0.79-0.79-0.79s-0.79,0.35-0.79,0.79v12.93c-0.19,0.21-0.4,0.44-0.64,0.7    c-1.45,1.54-3.96,4.21-6.18,9.23c-2.24-4.37-3.44-6.49-3.95-7c-0.28-0.28-0.55-0.52-0.8-0.74c-0.01-0.01-0.01-0.01-0.02-0.02    c-0.9-0.75-1.62-1.11-2.07-1.29l0.01-0.03c0.02-0.08,0.02-0.17,0.01-0.24c1.27,0,2.27-0.34,2.35-0.37l0.66-0.23l-0.71-3.45    l0.99-1.28l-0.31-0.47c-0.07-0.11-1.41-2.16-2.47-3.59c0-0.01-0.01-0.01-0.01-0.01c-0.35-0.47-0.67-0.88-0.9-1.12    c-1.28-1.37-4.12-1.05-6.21,0.7c-2.9,2.44-1.99,6.26-1.09,7.95c-0.22-0.03-0.49-0.08-0.81-0.17c-1.17-0.36-1.79-0.83-1.8-0.83    c-0.35-0.27-0.84-0.2-1.11,0.15c-0.27,0.35-0.2,0.84,0.15,1.11c0.08,0.06,0.86,0.64,2.29,1.08c0.19,0.06,0.37,0.11,0.55,0.14    c-1.13,0.26-2.42,0.75-3.34,1.66c-1.17,1.17-3.34,4.03-4.72,5.91V25.59H29.76z M14.54,52.68l1.27,5.09    c-0.6,1.24-3.11,6.58-4.4,11.93c-0.02,0.1-0.03,0.2-0.01,0.29H9.63V58.94L14.54,52.68z M19.59,43.06l3.21,8.09v0.28    c-2.81-2.22-4.25-6.45-4.73-8.14C18.67,43.15,19.21,43.09,19.59,43.06z M27.07,60.93c-0.64-0.57-1.07-1.08-1.35-1.47    c0.34-0.08,0.66-0.16,0.96-0.23c0.96-0.22,1.79-0.42,2.61-0.71C28.65,59.32,27.9,60.13,27.07,60.93z M24.39,60.32    c0.33,0.48,0.82,1.06,1.51,1.69c-0.49,0.43-0.99,0.85-1.51,1.26V60.32z M23.11,55.99c0.5-0.33,0.91-0.4,1.24-0.2    c0.43,0.27,0.63,0.9,0.59,1.21c-0.06,0.4-0.42,0.8-0.85,1.1c-0.04,0.02-0.09,0.05-0.13,0.08c-0.4,0.25-0.85,0.42-1.16,0.42    c0,0-0.01,0-0.02,0c-0.37-0.01-0.58-0.32-0.89-0.98l-0.08-0.17C21.69,57.06,21.81,56.87,23.11,55.99z M23.11,66    c0.02,0.03,0.05,0.07,0.08,0.1l3.89,3.9H15.97c1.92-2.16,3.68-2.74,5.25-3.26C21.88,66.52,22.52,66.31,23.11,66z M39.76,71.58    v15.39h-4.24L34.61,75.8c0-0.02-0.01-0.03-0.01-0.05c0-0.02-0.01-0.05-0.01-0.07c-0.01-0.03-0.02-0.06-0.03-0.09    c-0.01-0.02-0.01-0.03-0.02-0.05c-0.02-0.04-0.03-0.07-0.06-0.1c-0.01-0.01-0.01-0.02-0.02-0.02c-0.02-0.03-0.05-0.07-0.08-0.1    c-0.01-0.01-0.01-0.01-0.02-0.02c-0.03-0.03-0.06-0.05-0.09-0.07c-0.01-0.01-0.02-0.02-0.04-0.03c-0.03-0.02-0.05-0.03-0.08-0.04    c-0.02-0.01-0.04-0.02-0.07-0.03c-0.02-0.01-0.04-0.01-0.06-0.02c-0.03-0.01-0.06-0.02-0.09-0.02c-0.02,0-0.04,0-0.06-0.01    c-0.02,0-0.04-0.01-0.06-0.01h-2.38c-0.02,0-0.04,0-0.06,0.01c-0.02,0-0.05,0-0.07,0.01c-0.03,0-0.06,0.01-0.09,0.02    c-0.02,0.01-0.05,0.01-0.07,0.02c-0.02,0.01-0.04,0.02-0.06,0.03c-0.03,0.01-0.06,0.03-0.08,0.05c-0.01,0.01-0.02,0.02-0.03,0.02    c-0.03,0.02-0.06,0.05-0.09,0.07c-0.01,0.01-0.01,0.01-0.02,0.02c-0.03,0.03-0.05,0.06-0.08,0.09c-0.01,0.01-0.01,0.02-0.02,0.03    c-0.02,0.03-0.04,0.07-0.05,0.1c-0.01,0.02-0.01,0.03-0.02,0.05c-0.01,0.03-0.02,0.06-0.03,0.09c-0.01,0.02-0.01,0.05-0.01,0.07    c0,0.02-0.01,0.03-0.01,0.05l-0.92,11.16h-4.24V83c0-0.02,0-0.03,0-0.05c0-0.03,0-0.06-0.01-0.09c0-0.03-0.01-0.05-0.02-0.08    c-0.01-0.02-0.01-0.05-0.02-0.07c-0.01-0.03-0.02-0.05-0.04-0.08c-0.01-0.01-0.01-0.03-0.02-0.04c0-0.01-0.01-0.01-0.01-0.02    c-0.02-0.02-0.03-0.05-0.05-0.07c-0.02-0.02-0.03-0.04-0.05-0.06c-0.02-0.02-0.04-0.03-0.05-0.05c-0.02-0.02-0.04-0.04-0.06-0.05    c-0.02-0.01-0.04-0.02-0.06-0.03c-0.02-0.01-0.05-0.03-0.08-0.04c-0.02-0.01-0.04-0.01-0.06-0.02c-0.03-0.01-0.06-0.02-0.08-0.03    c-0.02,0-0.04-0.01-0.06-0.01c-0.03,0-0.06-0.01-0.1-0.01c-0.01,0-0.01,0-0.02,0c-0.02,0-0.03,0-0.04,0c-0.03,0-0.06,0-0.09,0.01    c-0.02,0-0.05,0.01-0.07,0.02c-0.03,0.01-0.05,0.01-0.07,0.02c-0.03,0.01-0.05,0.02-0.08,0.04c-0.01,0.01-0.03,0.01-0.04,0.02    l-6.73,4.04V83c0-0.02,0-0.03,0-0.05c0-0.03,0-0.06-0.01-0.09c0-0.03-0.01-0.05-0.02-0.08c-0.01-0.02-0.01-0.05-0.02-0.07    c-0.01-0.03-0.02-0.05-0.04-0.08c-0.01-0.01-0.01-0.03-0.02-0.04c0-0.01-0.01-0.01-0.01-0.02c-0.02-0.03-0.03-0.05-0.05-0.07    c-0.01-0.02-0.03-0.04-0.04-0.05c-0.02-0.02-0.04-0.04-0.06-0.05c-0.02-0.02-0.04-0.03-0.06-0.05c-0.02-0.01-0.04-0.02-0.06-0.04    c-0.02-0.01-0.05-0.03-0.07-0.04c-0.02-0.01-0.04-0.02-0.06-0.02c-0.03-0.01-0.05-0.02-0.08-0.03c-0.02,0-0.04-0.01-0.06-0.01    c-0.03,0-0.06-0.01-0.1-0.01c-0.01,0-0.01,0-0.02,0c-0.01,0-0.03,0-0.04,0c-0.03,0-0.06,0-0.09,0.01c-0.02,0-0.05,0.01-0.07,0.02    c-0.03,0.01-0.05,0.01-0.08,0.02c-0.03,0.01-0.05,0.02-0.08,0.04c-0.01,0.01-0.03,0.01-0.04,0.02l-6.73,4.04V71.58H39.76z     M11.73,108.19c-1.02-0.35-2.1-1.19-2.1-2.51V88.21l6.34-3.81v3.36c0,0.02,0,0.03,0,0.05c0,0.03,0,0.06,0.01,0.09    c0,0.03,0.01,0.05,0.02,0.08c0.01,0.02,0.01,0.05,0.02,0.07c0.01,0.03,0.02,0.06,0.04,0.08c0.01,0.01,0.01,0.03,0.02,0.04    c0,0,0.01,0.01,0.01,0.01c0.03,0.05,0.07,0.1,0.12,0.15c0.01,0.01,0.02,0.01,0.03,0.02c0.04,0.03,0.08,0.06,0.12,0.09    c0.02,0.01,0.03,0.02,0.05,0.03c0.04,0.02,0.08,0.04,0.13,0.05c0.02,0,0.03,0.01,0.05,0.01c0.06,0.01,0.12,0.02,0.18,0.02    c0,0,0,0,0,0c0,0,0,0,0,0c0,0,0,0,0,0c0.06,0,0.13-0.01,0.19-0.02c0.02,0,0.03-0.01,0.05-0.01c0.05-0.02,0.1-0.04,0.14-0.06    c0.01,0,0.02-0.01,0.03-0.01l6.73-4.04v3.36c0,0.44,0.35,0.79,0.79,0.79h5.76c0,0,0,0,0,0c0,0,0,0,0,0c0.05,0,0.1-0.01,0.15-0.02    c0.02,0,0.03-0.01,0.05-0.02c0.03-0.01,0.06-0.02,0.09-0.03c0.02-0.01,0.04-0.02,0.06-0.03c0.02-0.01,0.05-0.02,0.07-0.04    c0.02-0.01,0.04-0.03,0.05-0.04c0.02-0.02,0.04-0.03,0.06-0.05c0.02-0.02,0.03-0.03,0.04-0.05c0.02-0.02,0.04-0.04,0.05-0.07    c0.01-0.02,0.02-0.04,0.03-0.05c0.01-0.02,0.03-0.05,0.04-0.08c0.01-0.02,0.02-0.04,0.02-0.06c0.01-0.03,0.02-0.05,0.03-0.08    c0.01-0.02,0.01-0.04,0.01-0.07c0-0.02,0.01-0.04,0.01-0.05l0.92-11.16h0.92L34,87.83c0,0.02,0.01,0.04,0.01,0.05    c0,0.02,0.01,0.04,0.01,0.07c0.01,0.03,0.02,0.06,0.03,0.08c0.01,0.02,0.01,0.04,0.02,0.06c0.01,0.03,0.03,0.05,0.04,0.08    c0.01,0.02,0.02,0.04,0.03,0.05c0.02,0.02,0.03,0.04,0.05,0.07c0.01,0.02,0.03,0.03,0.04,0.05c0.02,0.02,0.04,0.04,0.06,0.05    c0.02,0.01,0.03,0.03,0.05,0.04c0.02,0.02,0.05,0.03,0.07,0.04c0.02,0.01,0.04,0.02,0.06,0.03c0.03,0.01,0.06,0.02,0.09,0.03    c0.02,0,0.03,0.01,0.05,0.02c0.05,0.01,0.1,0.02,0.15,0.02c0,0,0,0,0,0c0,0,0,0,0,0h4.97v28.25c-1.8-1.08-3.75-1.72-5.48-2.21    L11.73,108.19z M71.49,71.58v34.1c0,1.32-1.09,2.16-2.06,2.5l-22.59,6.41c-1.73,0.49-3.67,1.13-5.48,2.21V71.58H71.49z M29.01,70    c0-0.2-0.08-0.39-0.23-0.54l-4.27-4.28c0.85-0.63,1.74-1.36,2.63-2.15c1.15,0.84,2.66,1.73,4.67,2.57    c3.99,1.68,6.31,2.13,7.64,2.13c0.11,0,0.21,0,0.31-0.01V70H29.01z M39.76,43.87v22.24c-0.75,0.07-2.77-0.06-7.34-1.99    c-1.75-0.74-3.09-1.5-4.11-2.21c2.17-2.12,4.12-4.59,4.94-6.93C35.38,48.92,37.99,45.79,39.76,43.87z M32.15,53.4    c-0.13,0.34-0.26,0.69-0.39,1.05c-0.15,0.43-0.36,0.88-0.61,1.35c-1.64,1.12-2.84,1.41-4.75,1.86c0.05-0.14,0.09-0.29,0.11-0.44    c0.08-0.56-0.07-1.29-0.46-1.91L30,52.83c0.37-0.23,0.48-0.72,0.25-1.09c-0.23-0.37-0.72-0.48-1.09-0.25l-4.38,2.75    c-0.12-0.04-0.25-0.08-0.39-0.11v-0.38c2.37-2.31,3.39-5.71,3.81-7.72C28.69,46.81,29.78,48.74,32.15,53.4z M26.83,44.68    c-0.17,1.11-0.76,4.19-2.44,6.62v-0.22l1.4-7.05C26.05,44.15,26.4,44.35,26.83,44.68z M27.28,40.44c-1,0.19-2.9,0.31-4-1.11    c-0.27-0.34-0.77-0.41-1.11-0.14c-0.34,0.27-0.41,0.77-0.14,1.11c0.73,0.94,1.65,1.42,2.56,1.65c-0.01,0.04-0.03,0.08-0.04,0.12    l-1.23,6.19l-2.46-6.31c0-0.01,0-0.01-0.01-0.02c-0.01-0.01-0.55-1.54,0.85-4.64c0.89-1.97,2.99-2.86,3.95-3.18    c0.62,0.87,1.33,1.91,1.8,2.62l-0.75,0.96L27.28,40.44z M20.53,33.53c1.62-1.36,3.5-1.4,4.03-0.83c0.03,0.03,0.06,0.07,0.09,0.1    c-1.31,0.51-3.38,1.64-4.38,3.85c-0.35,0.78-0.6,1.48-0.77,2.1C19.08,37.53,18.61,35.15,20.53,33.53z M9.65,51.99    c0.04-0.06,4.16-5.78,5.83-7.45c0.31-0.31,0.68-0.55,1.09-0.74c0.6,2.1,2.41,7.29,6.24,9.55v1.02c-0.21,0.09-0.43,0.21-0.66,0.36    c-1.07,0.72-2.41,1.62-1.8,3.31l0.12,0.27c0.28,0.6,0.88,1.86,2.3,1.89c0.01,0,0.02,0,0.04,0v4.14c-0.56,0.39-1.24,0.62-2.08,0.89    c-1.8,0.59-4.04,1.33-6.43,4.28c-0.12,0.14-0.17,0.31-0.17,0.48h-1.15c1.41-5.77,4.36-11.72,4.39-11.78    c0.01-0.01,0.01-0.03,0.02-0.04c0.01-0.03,0.02-0.05,0.03-0.08c0.01-0.02,0.01-0.05,0.02-0.07c0.01-0.02,0.01-0.05,0.01-0.07    c0-0.03,0-0.05,0-0.08c0-0.02,0-0.05,0-0.07c0-0.03-0.01-0.06-0.01-0.09c0-0.01,0-0.02-0.01-0.04l-1.74-6.94    c0-0.01-0.01-0.01-0.01-0.02c-0.01-0.03-0.02-0.06-0.03-0.09c-0.01-0.02-0.02-0.04-0.02-0.06c-0.01-0.03-0.03-0.05-0.04-0.07    c-0.01-0.02-0.03-0.04-0.04-0.06c-0.02-0.02-0.03-0.04-0.05-0.06c-0.02-0.02-0.04-0.04-0.06-0.06c-0.01-0.01-0.01-0.01-0.02-0.02    c-0.01-0.01-0.03-0.02-0.04-0.03c-0.02-0.01-0.04-0.03-0.06-0.04c-0.03-0.01-0.05-0.03-0.08-0.04c-0.02-0.01-0.04-0.02-0.06-0.02    c-0.03-0.01-0.06-0.02-0.09-0.02c-0.02,0-0.04-0.01-0.06-0.01c-0.03,0-0.07-0.01-0.1-0.01c-0.02,0-0.04,0-0.05,0    c-0.04,0-0.07,0.01-0.11,0.02c-0.01,0-0.02,0-0.03,0c-0.01,0-0.01,0-0.02,0.01c-0.03,0.01-0.07,0.02-0.1,0.04    c-0.02,0.01-0.03,0.01-0.05,0.02c-0.03,0.01-0.06,0.03-0.08,0.05c-0.02,0.01-0.03,0.02-0.05,0.04c-0.02,0.02-0.04,0.04-0.06,0.06    c-0.02,0.02-0.04,0.04-0.05,0.05c-0.01,0.01-0.01,0.01-0.02,0.02l-4.66,5.94v-4.36C9.64,52,9.64,52,9.65,51.99z"/>
		<path class="st0" d="M78.62,17.66H49.28c-0.44,0-0.79,0.35-0.79,0.79s0.35,0.79,0.79,0.79h28.55v86.44c0,3.98-2.76,7.25-7.35,8.75    l-22.2,6.34c0,0-0.01,0-0.01,0c0,0-0.01,0-0.01,0c-4.31,1.32-6.63,3.14-7.7,4.22c-1.07-1.08-3.38-2.9-7.7-4.22c0,0-0.01,0-0.01,0    c0,0-0.01,0-0.01,0l-22.18-6.33c-4.62-1.51-7.38-4.79-7.38-8.76V19.24h28.54c0.44,0,0.79-0.35,0.79-0.79s-0.35-0.79-0.79-0.79    H2.49c-0.44,0-0.79,0.35-0.79,0.79v87.23c0,4.63,3.25,8.56,8.51,10.28l22.19,6.34c4.04,1.24,6.53,3.08,7.53,4.38    c0,0.01,0.01,0.01,0.02,0.02c0.03,0.03,0.06,0.06,0.09,0.09c0.01,0.01,0.03,0.03,0.04,0.04c0,0,0.01,0.01,0.01,0.01    c0.04,0.03,0.08,0.06,0.13,0.08c0.01,0.01,0.02,0.01,0.03,0.01c0.04,0.02,0.08,0.03,0.12,0.04c0.01,0,0.03,0.01,0.04,0.01    c0.05,0.01,0.11,0.02,0.16,0.02c0,0,0,0,0,0c0,0,0,0,0,0c0.05,0,0.11-0.01,0.16-0.02c0.01,0,0.03-0.01,0.04-0.01    c0.04-0.01,0.08-0.03,0.12-0.04c0.01,0,0.02-0.01,0.03-0.01c0.04-0.02,0.09-0.05,0.13-0.08c0,0,0.01-0.01,0.01-0.01    c0.02-0.01,0.03-0.03,0.04-0.04c0.03-0.03,0.06-0.06,0.08-0.09c0-0.01,0.01-0.01,0.02-0.02c0.99-1.3,3.49-3.14,7.53-4.38    l22.22-6.35c5.23-1.71,8.48-5.64,8.48-10.27V18.45C79.42,18.01,79.06,17.66,78.62,17.66z"/>
		<path class="st0" d="M28.01,9.21C28,9.24,27.99,9.26,27.98,9.29c-0.01,0.02-0.02,0.05-0.03,0.07c-0.01,0.02-0.01,0.05-0.02,0.07    c0,0.03-0.01,0.05-0.01,0.08c0,0.02,0,0.05,0,0.07c0,0.03,0,0.05,0,0.08c0,0.02,0.01,0.05,0.01,0.07    c0.01,0.03,0.01,0.06,0.02,0.08c0,0.01,0,0.02,0.01,0.03C27.98,9.87,27.99,9.88,28,9.9c0.01,0.02,0.01,0.03,0.02,0.05    c0.02,0.03,0.04,0.06,0.06,0.09c0.01,0.01,0.01,0.02,0.02,0.02c0.03,0.04,0.06,0.07,0.1,0.1c0.01,0.01,0.02,0.02,0.03,0.03    c0.03,0.02,0.05,0.04,0.08,0.06c0.01,0,0.01,0.01,0.02,0.02c0.01,0,0.01,0,0.02,0.01c0.05,0.03,0.1,0.05,0.16,0.06    c0.01,0,0.02,0.01,0.03,0.01c0.06,0.01,0.11,0.02,0.17,0.02c0,0,0,0,0,0c0,0,0,0,0,0c0,0,0,0,0,0c0.06,0,0.12-0.01,0.18-0.02    c0.02,0,0.03-0.01,0.05-0.01c0.02-0.01,0.03-0.01,0.05-0.01l5.87-2.21c1.67,0.89,4.31,1.86,7.91,1.86c6.67,0,10.04-3.3,10.18-3.44    c0.15-0.15,0.23-0.36,0.23-0.56c0-0.2-0.08-0.41-0.23-0.56c-0.14-0.14-3.52-3.44-10.18-3.44c-3.58,0-6.22,0.96-7.87,1.84    l-5.91-2.19c-0.01,0-0.02-0.01-0.04-0.01c-0.02-0.01-0.04-0.01-0.07-0.02c-0.03-0.01-0.06-0.01-0.09-0.02c-0.02,0-0.04,0-0.07,0    c-0.03,0-0.06,0-0.09,0c-0.02,0-0.04,0.01-0.06,0.01c-0.03,0-0.06,0.01-0.09,0.02c-0.02,0.01-0.04,0.01-0.06,0.02    c-0.03,0.01-0.06,0.02-0.08,0.04c-0.01,0-0.02,0.01-0.03,0.01c-0.01,0.01-0.02,0.02-0.03,0.02c-0.03,0.02-0.05,0.03-0.07,0.05    c-0.02,0.01-0.04,0.03-0.05,0.05c-0.02,0.02-0.04,0.04-0.06,0.06c-0.02,0.02-0.03,0.04-0.04,0.06c-0.02,0.02-0.03,0.04-0.04,0.07    C28.02,1.99,28,2.01,27.99,2.04c-0.01,0.01-0.01,0.03-0.02,0.04c0,0.01,0,0.02-0.01,0.03c-0.01,0.03-0.01,0.05-0.02,0.08    c-0.01,0.03-0.01,0.05-0.01,0.08c0,0.03,0,0.05,0,0.08c0,0.03,0,0.05,0,0.08c0,0.03,0.01,0.05,0.01,0.08    c0,0.03,0.01,0.05,0.02,0.07c0.01,0.02,0.02,0.05,0.03,0.07c0.01,0.03,0.02,0.05,0.03,0.07c0,0.01,0.01,0.02,0.01,0.03l1.8,3.22    l-1.8,3.22C28.02,9.19,28.02,9.2,28.01,9.21z M51.13,5.96c-1.22,0.86-4.01,2.41-8.35,2.41c-3.5,0-5.98-1-7.45-1.84c0,0,0,0,0,0    c-0.04-0.02-0.09-0.04-0.13-0.06c-0.01,0-0.02-0.01-0.02-0.01c-0.04-0.01-0.07-0.02-0.11-0.02c-0.02,0-0.03-0.01-0.05-0.01    c-0.03,0-0.05,0-0.08,0c-0.03,0-0.06,0-0.08,0.01c-0.02,0-0.03,0.01-0.05,0.01c-0.04,0.01-0.08,0.02-0.12,0.03c0,0-0.01,0-0.01,0    l-4.19,1.58l1.17-2.1l-1.18-2.11l4.22,1.57c0.01,0,0.03,0.01,0.04,0.01c0.02,0.01,0.04,0.01,0.06,0.02    c0.03,0.01,0.06,0.01,0.09,0.02c0.02,0,0.04,0,0.06,0.01c0.01,0,0.02,0,0.03,0c0.02,0,0.04,0,0.06,0c0.01,0,0.03,0,0.04,0    c0.05-0.01,0.09-0.02,0.14-0.03c0.01,0,0.01-0.01,0.02-0.01c0.04-0.01,0.08-0.03,0.12-0.05c0.01,0,0.01,0,0.02-0.01    c1.46-0.83,3.94-1.82,7.42-1.82C47.11,3.55,49.91,5.1,51.13,5.96z"/>
		<path class="st0" d="M30.97,98.29h-0.83c-0.06-0.43-0.16-0.85-0.32-1.25l0.71-0.41c0.38-0.22,0.51-0.7,0.29-1.08    c-0.22-0.38-0.71-0.51-1.08-0.29l-0.73,0.42c-0.27-0.34-0.57-0.64-0.91-0.91l0.42-0.73c0.22-0.38,0.09-0.86-0.29-1.08    c-0.38-0.22-0.87-0.09-1.08,0.29l-0.41,0.71c-0.39-0.16-0.81-0.26-1.25-0.32v-0.83c0-0.44-0.35-0.79-0.79-0.79    s-0.79,0.35-0.79,0.79v0.83c-0.43,0.06-0.85,0.16-1.25,0.32l-0.41-0.71c-0.22-0.38-0.71-0.51-1.08-0.29    c-0.38,0.22-0.51,0.7-0.29,1.08l0.42,0.73c-0.34,0.27-0.64,0.57-0.91,0.91l-0.73-0.42c-0.38-0.22-0.87-0.09-1.08,0.29    c-0.22,0.38-0.09,0.86,0.29,1.08l0.71,0.41c-0.16,0.39-0.26,0.81-0.32,1.25h-0.83c-0.44,0-0.79,0.35-0.79,0.79    c0,0.44,0.35,0.79,0.79,0.79h0.83c0.06,0.43,0.16,0.85,0.32,1.25l-0.71,0.41c-0.38,0.22-0.51,0.7-0.29,1.08    c0.15,0.25,0.41,0.4,0.69,0.4c0.13,0,0.27-0.03,0.4-0.11l0.73-0.42c0.27,0.34,0.57,0.64,0.91,0.91l-0.42,0.73    c-0.22,0.38-0.09,0.86,0.29,1.08c0.12,0.07,0.26,0.11,0.4,0.11c0.27,0,0.54-0.14,0.69-0.4l0.41-0.71    c0.39,0.16,0.81,0.26,1.25,0.32v0.83c0,0.44,0.35,0.79,0.79,0.79s0.79-0.35,0.79-0.79v-0.83c0.43-0.06,0.85-0.16,1.25-0.32    l0.41,0.71c0.15,0.25,0.41,0.4,0.69,0.4c0.13,0,0.27-0.03,0.4-0.11c0.38-0.22,0.51-0.7,0.29-1.08l-0.42-0.73    c0.34-0.27,0.64-0.57,0.91-0.91l0.73,0.42c0.12,0.07,0.26,0.11,0.4,0.11c0.27,0,0.54-0.14,0.69-0.4c0.22-0.38,0.09-0.86-0.29-1.08    l-0.71-0.41c0.16-0.4,0.26-0.82,0.32-1.25h0.83c0.44,0,0.79-0.35,0.79-0.79C31.77,98.65,31.41,98.29,30.97,98.29z M24.7,103.02    c-2.17,0-3.94-1.77-3.94-3.94c0-2.17,1.77-3.94,3.94-3.94s3.94,1.77,3.94,3.94C28.63,101.26,26.87,103.02,24.7,103.02z"/>
	</g>
	<g>
		<path class="st0" d="M118.22,36.81c0,3.32-2.44,5.53-6.23,5.53c-3.06,0-5.17-1.43-6.34-2.78l1.61-2.44    c1.4,1.53,3.09,2.36,4.78,2.36c1.66,0,2.8-0.81,2.8-2.36c0-1.4-0.93-1.87-2.47-2.49l-2.8-1.12c-1.95-0.78-3.25-2.16-3.25-4.34    c0-3.12,2.44-5.27,6.21-5.27c2.54,0,4.39,1.06,5.45,2.16l-1.61,2.42c-1.14-1.04-2.52-1.79-4.05-1.79c-1.48,0-2.65,0.73-2.65,2.05    c0,1.3,1.12,1.79,2.05,2.18l2.99,1.22C117.24,33.17,118.22,34.57,118.22,36.81z"/>
		<path class="st0" d="M127.55,39.77c1.69,0,3.19-0.75,3.79-1.27l1.3,1.79c-0.7,0.73-2.6,2.03-5.66,2.03c-3.79,0-6.6-2.31-6.6-6.36    c0-4.03,2.93-6.73,6.52-6.73c3.87,0,6.21,2.54,6.21,5.89c0,0.65-0.05,1.69-0.05,1.69h-9.24    C124.12,38.81,125.65,39.77,127.55,39.77z M123.76,34.65h6.02c-0.05-1.38-0.57-2.96-2.91-2.96    C124.9,31.69,123.86,33.07,123.76,34.65z"/>
		<path class="st0" d="M145.8,38.18l0.93,2.44c-0.26,0.23-1.56,1.69-4.91,1.69c-3.43,0-6.6-2.36-6.6-6.47    c0-4.13,3.27-6.62,6.65-6.62c3.17,0,4.41,1.27,4.75,1.61l-0.91,2.49c-0.39-0.36-1.51-1.32-3.45-1.32c-1.97,0-3.56,1.38-3.56,3.69    c0,2.31,1.58,3.82,3.74,3.82C144.61,39.51,145.8,38.18,145.8,38.18z"/>
		<path class="st0" d="M152.63,29.46l-0.05,2.03h0.08c0.49-1.35,1.74-2.26,3.09-2.26c0.86,0,1.32,0.23,1.32,0.23l-0.23,2.88h-0.16    c-0.36-0.1-0.93-0.16-1.38-0.16c-0.99,0-1.74,0.42-2.21,1.22c-0.31,0.62-0.47,1.48-0.47,2.44v6.18h-3.3V29.46H152.63z"/>
		<path class="st0" d="M165.59,39.77c1.69,0,3.19-0.75,3.79-1.27l1.3,1.79c-0.7,0.73-2.6,2.03-5.66,2.03c-3.79,0-6.6-2.31-6.6-6.36    c0-4.03,2.93-6.73,6.52-6.73c3.87,0,6.21,2.54,6.21,5.89c0,0.65-0.05,1.69-0.05,1.69h-9.24C162.17,38.81,163.7,39.77,165.59,39.77    z M161.8,34.65h6.02c-0.05-1.38-0.57-2.96-2.91-2.96C162.95,31.69,161.91,33.07,161.8,34.65z"/>
		<path class="st0" d="M179.41,39.53c0.68,0,1.19-0.21,1.19-0.21l0.18,2.57c-0.16,0.05-1.14,0.42-2.54,0.42    c-2.57,0-3.64-1.17-3.64-4.44v-5.82h-1.87v-2.57h1.87V25.9h3.3v3.58h2.91v2.57h-2.91v5.09C177.9,39.07,178.24,39.53,179.41,39.53z    "/>
		<path class="st0" d="M186.84,42.31c-2.44,0-4.41-1.32-4.41-3.95c0-2.62,2.57-3.64,5.17-3.82l3.01-0.21V34    c0-1.61-1.06-2.36-2.8-2.36c-1.66,0-3.04,0.62-3.58,1.04l-1.01-2.13c0.96-0.57,2.73-1.32,4.91-1.32c2.23,0,3.51,0.57,4.44,1.45    c0.91,0.88,1.38,2.03,1.38,4.15v7.19h-3.19l-0.05-1.45C190.16,41.48,188.71,42.31,186.84,42.31z M185.75,38.26    c0,1.06,0.8,1.79,2.18,1.79c1.3,0,2.26-0.75,2.7-1.38v-2.31l-2.26,0.13C186.6,36.6,185.75,37.2,185.75,38.26z"/>
		<path class="st0" d="M200.76,29.46l-0.05,2.03h0.08c0.49-1.35,1.74-2.26,3.09-2.26c0.86,0,1.32,0.23,1.32,0.23l-0.23,2.88h-0.16    c-0.36-0.1-0.93-0.16-1.38-0.16c-0.99,0-1.74,0.42-2.21,1.22c-0.31,0.62-0.47,1.48-0.47,2.44v6.18h-3.3V29.46H200.76z"/>
		<path class="st0" d="M212.73,24.11l-2.78,3.77h-2.41l2.18-3.77H212.73z M210.94,29.46v12.57h-3.32V29.46H210.94z"/>
		<path class="st0" d="M218.24,42.31c-2.44,0-4.41-1.32-4.41-3.95c0-2.62,2.57-3.64,5.17-3.82l3.01-0.21V34    c0-1.61-1.06-2.36-2.8-2.36c-1.66,0-3.04,0.62-3.58,1.04l-1.01-2.13c0.96-0.57,2.73-1.32,4.91-1.32c2.23,0,3.51,0.57,4.44,1.45    c0.91,0.88,1.38,2.03,1.38,4.15v7.19h-3.19l-0.05-1.45C221.56,41.48,220.11,42.31,218.24,42.31z M217.14,38.26    c0,1.06,0.8,1.79,2.18,1.79c1.3,0,2.26-0.75,2.7-1.38v-2.31l-2.26,0.13C218,36.6,217.14,37.2,217.14,38.26z"/>
		<path class="st0" d="M115.91,67.26c-1.01,1.61-2.57,2.26-4.31,2.26c-3.69,0-5.95-2.86-5.95-6.6c0-3.56,2.36-6.49,6.18-6.49    c1.69,0,3.12,0.62,4,1.97h0.05c-0.03-0.57-0.03-1.25-0.03-2.13v-4.96h3.3v17.92h-3.14l-0.03-1.97H115.91z M115.94,62.93    c0-2.1-1.38-3.95-3.51-3.95c-2.16,0-3.4,1.84-3.4,3.95c0,2.18,1.35,3.9,3.51,3.9C114.54,66.82,115.94,65.29,115.94,62.93z"/>
		<path class="st0" d="M129.37,66.98c1.69,0,3.19-0.75,3.79-1.27l1.3,1.79c-0.7,0.73-2.6,2.03-5.66,2.03c-3.79,0-6.6-2.31-6.6-6.36    c0-4.02,2.93-6.73,6.52-6.73c3.87,0,6.21,2.54,6.21,5.89c0,0.65-0.05,1.69-0.05,1.69h-9.24    C125.94,66.02,127.47,66.98,129.37,66.98z M125.57,61.86h6.02c-0.05-1.38-0.57-2.96-2.91-2.96    C126.72,58.9,125.68,60.28,125.57,61.86z"/>
		<path class="st0" d="M155.41,64.02c0,3.32-2.44,5.53-6.23,5.53c-3.06,0-5.17-1.43-6.34-2.78l1.61-2.44    c1.4,1.53,3.09,2.36,4.78,2.36c1.66,0,2.8-0.8,2.8-2.36c0-1.4-0.93-1.87-2.47-2.49l-2.8-1.12c-1.95-0.78-3.25-2.16-3.25-4.34    c0-3.12,2.44-5.27,6.21-5.27c2.54,0,4.39,1.06,5.45,2.16l-1.61,2.41c-1.14-1.04-2.52-1.79-4.05-1.79c-1.48,0-2.65,0.73-2.65,2.05    c0,1.3,1.12,1.79,2.05,2.18l2.99,1.22C154.43,60.38,155.41,61.78,155.41,64.02z"/>
		<path class="st0" d="M164.74,66.98c1.69,0,3.19-0.75,3.79-1.27l1.3,1.79c-0.7,0.73-2.6,2.03-5.66,2.03c-3.79,0-6.6-2.31-6.6-6.36    c0-4.02,2.93-6.73,6.52-6.73c3.87,0,6.21,2.54,6.21,5.89c0,0.65-0.05,1.69-0.05,1.69H161C161.31,66.02,162.84,66.98,164.74,66.98z     M160.95,61.86h6.02c-0.05-1.38-0.57-2.96-2.91-2.96C162.09,58.9,161.05,60.28,160.95,61.86z"/>
		<path class="st0" d="M178.4,68.82c-3.17,0-5.87-2.03-5.87-6.02c0-3.48,2.44-6.36,6.18-6.36c1.69,0,3.12,0.62,4,1.97h0.05    l-0.03-1.74h3.3v9.97c0,2.75-0.57,4.31-1.64,5.43c-1.09,1.14-2.7,2.21-5.71,2.21c-2.99,0-5.22-1.43-5.84-1.87l1.38-2.31    c0.8,0.57,2.86,1.48,4.47,1.48c1.79,0,2.73-0.57,3.19-1.12c0.47-0.55,0.86-1.58,0.86-2.99v-0.62h-0.05    C181.83,68.15,180.32,68.82,178.4,68.82z M179.38,59.06c-2.18,0-3.48,1.61-3.48,3.66c0,1.92,1.25,3.51,3.43,3.51    c2.39,0,3.58-1.58,3.58-3.51C182.92,60.9,181.57,59.06,179.38,59.06z"/>
		<path class="st0" d="M195.15,66.74c2,0,2.75-1.58,2.75-3.69v-6.39h3.32v12.57H198l-0.03-1.77c-0.73,1.25-2.08,2-3.9,2    c-3.61,0-4.49-2.34-4.49-5.35v-7.45h3.32v6.73C192.91,65.26,193.23,66.74,195.15,66.74z"/>
		<path class="st0" d="M208.26,56.67l-0.05,2.03h0.08c0.49-1.35,1.74-2.26,3.09-2.26c0.86,0,1.32,0.23,1.32,0.23l-0.23,2.88h-0.16    c-0.36-0.1-0.93-0.16-1.38-0.16c-0.99,0-1.74,0.42-2.21,1.22c-0.31,0.62-0.47,1.48-0.47,2.44v6.18h-3.3V56.67H208.26z"/>
		<path class="st0" d="M214.78,52.82c0-1.06,0.83-1.84,2-1.84c1.17,0,2,0.78,2,1.84c0,1.09-0.83,1.84-2,1.84    C215.61,54.67,214.78,53.92,214.78,52.82z M218.44,56.67v12.57h-3.32V56.67H218.44z"/>
		<path class="st0" d="M231.77,67.26c-1.01,1.61-2.57,2.26-4.31,2.26c-3.69,0-5.95-2.86-5.95-6.6c0-3.56,2.36-6.49,6.18-6.49    c1.69,0,3.12,0.62,4,1.97h0.05c-0.03-0.57-0.03-1.25-0.03-2.13v-4.96h3.3v17.92h-3.14l-0.03-1.97H231.77z M231.79,62.93    c0-2.1-1.38-3.95-3.51-3.95c-2.16,0-3.4,1.84-3.4,3.95c0,2.18,1.35,3.9,3.51,3.9C230.39,66.82,231.79,65.29,231.79,62.93z"/>
		<path class="st0" d="M242.34,69.52c-2.44,0-4.41-1.32-4.41-3.95c0-2.62,2.57-3.64,5.17-3.82l3.01-0.21v-0.34    c0-1.61-1.06-2.36-2.8-2.36c-1.66,0-3.04,0.62-3.58,1.04l-1.01-2.13c0.96-0.57,2.73-1.32,4.91-1.32c2.23,0,3.51,0.57,4.44,1.45    c0.91,0.88,1.38,2.03,1.38,4.15v7.19h-3.19l-0.05-1.45C245.66,68.69,244.21,69.52,242.34,69.52z M241.25,65.47    c0,1.06,0.8,1.79,2.18,1.79c1.3,0,2.26-0.75,2.7-1.38v-2.31l-2.26,0.13C242.1,63.81,241.25,64.41,241.25,65.47z"/>
		<path class="st0" d="M262.44,67.26c-1.01,1.61-2.57,2.26-4.31,2.26c-3.69,0-5.95-2.86-5.95-6.6c0-3.56,2.36-6.49,6.18-6.49    c1.69,0,3.12,0.62,4,1.97h0.05c-0.03-0.57-0.03-1.25-0.03-2.13v-4.96h3.3v17.92h-3.14l-0.03-1.97H262.44z M262.46,62.93    c0-2.1-1.38-3.95-3.51-3.95c-2.16,0-3.4,1.84-3.4,3.95c0,2.18,1.35,3.9,3.51,3.9C261.06,66.82,262.46,65.29,262.46,62.93z"/>
		<path class="st0" d="M112.43,78.53c1.79,0,3.35,0.36,4.49,1.32c1.17,0.96,1.87,2.23,1.87,4.05c0,1.82-0.7,3.12-1.87,4.08    c-1.14,0.96-2.7,1.4-4.49,1.4h-2.36v7.06h-3.4V78.53H112.43z M114.33,86.06c0.57-0.42,0.99-1.14,0.99-2.16    c0-0.99-0.49-1.71-1.06-2.13c-0.57-0.42-1.27-0.6-2.31-0.6h-1.9v5.56h1.97C113.06,86.73,113.76,86.47,114.33,86.06z"/>
		<path class="st0" d="M126.69,93.95c2,0,2.75-1.58,2.75-3.69v-6.39h3.32v12.57h-3.22l-0.03-1.77c-0.73,1.25-2.08,2-3.9,2    c-3.61,0-4.49-2.34-4.49-5.35v-7.45h3.32v6.73C124.46,92.47,124.77,93.95,126.69,93.95z M130.35,78.22l-2.78,3.77h-2.41l2.18-3.77    H130.35z"/>
		<path class="st0" d="M139.96,78.53v5.61c0,0.93-0.05,1.48-0.05,1.48h0.08c1.09-1.43,2.52-2.03,4.21-2.03    c3.66,0,5.95,2.88,5.95,6.57c0,3.58-2.36,6.52-6.18,6.52c-1.77,0-3.14-0.62-4.13-2.05h-0.05l-0.08,1.82h-3.06V78.53H139.96z     M139.86,90.19c0,2.1,1.38,3.95,3.51,3.95c2.16,0,3.4-1.84,3.4-3.95c0-2.18-1.35-3.9-3.51-3.9    C141.26,86.29,139.86,87.82,139.86,90.19z"/>
		<path class="st0" d="M156.53,78.53v17.92h-3.3V78.53H156.53z"/>
		<path class="st0" d="M160.17,80.03c0-1.06,0.83-1.84,2-1.84c1.17,0,2,0.78,2,1.84c0,1.09-0.83,1.84-2,1.84    C161,81.88,160.17,81.12,160.17,80.03z M163.83,83.88v12.57h-3.32V83.88H163.83z"/>
		<path class="st0" d="M177.36,92.6l0.93,2.44c-0.26,0.23-1.56,1.69-4.91,1.69c-3.43,0-6.6-2.36-6.6-6.47    c0-4.13,3.27-6.62,6.65-6.62c3.17,0,4.41,1.27,4.75,1.61l-0.91,2.49c-0.39-0.36-1.51-1.32-3.45-1.32c-1.97,0-3.56,1.38-3.56,3.69    c0,2.31,1.58,3.82,3.74,3.82C176.16,93.93,177.36,92.6,177.36,92.6z"/>
		<path class="st0" d="M184.73,96.73c-2.44,0-4.41-1.32-4.41-3.95c0-2.62,2.57-3.64,5.17-3.82l3.01-0.21v-0.34    c0-1.61-1.06-2.36-2.8-2.36c-1.66,0-3.04,0.62-3.58,1.04l-1.01-2.13c0.96-0.57,2.73-1.32,4.91-1.32c2.23,0,3.51,0.57,4.44,1.45    c0.91,0.88,1.38,2.03,1.38,4.15v7.19h-3.19l-0.05-1.45C188.06,95.9,186.6,96.73,184.73,96.73z M183.64,92.68    c0,1.06,0.8,1.79,2.18,1.79c1.3,0,2.26-0.75,2.7-1.38v-2.31l-2.26,0.13C184.5,91.02,183.64,91.62,183.64,92.68z"/>
	</g>
	<g>
		<path class="st1" d="M109.24,117.6h2.76v2.62c-0.23,0.22-1.07,1.09-2.81,1.09c-1.85,0-3.38-1.17-3.38-3.36    c0-2.1,1.53-3.36,3.36-3.36c1.68,0,2.44,0.9,2.66,1.13l-0.82,0.73c-0.33-0.38-0.89-0.82-1.84-0.82c-1.19,0-2.1,0.85-2.1,2.31    c0,1.46,0.93,2.31,2.14,2.31c1.2,0,1.6-0.49,1.6-0.49v-1.2h-1.57V117.6z"/>
		<path class="st1" d="M115.03,117.94c0-2.1,1.53-3.36,3.41-3.36c1.89,0,3.41,1.27,3.41,3.36s-1.52,3.36-3.41,3.36    C116.56,121.3,115.03,120.04,115.03,117.94z M118.43,115.65c-1.21,0-2.14,0.87-2.14,2.29c0,1.42,0.94,2.29,2.14,2.29    c1.21,0,2.14-0.88,2.14-2.29C120.58,116.51,119.64,115.65,118.43,115.65z"/>
		<path class="st1" d="M127.27,114.67c0.53,0,1.02,0.05,1.44,0.26c0.51,0.25,0.84,0.64,0.84,1.39c0,0.79-0.59,1.26-1.01,1.43v0.02    c0.84,0.19,1.4,0.74,1.4,1.57c0,0.71-0.33,1.22-0.77,1.5c-0.41,0.26-0.98,0.36-1.61,0.36h-2.38v-6.52H127.27z M127.95,117.23    c0.23-0.14,0.36-0.37,0.36-0.76c0-0.57-0.44-0.84-1.08-0.84h-0.82v1.76h0.76C127.52,117.39,127.76,117.35,127.95,117.23z     M128.34,120.05c0.22-0.14,0.36-0.43,0.36-0.77c0-0.36-0.16-0.6-0.41-0.77c-0.25-0.17-0.5-0.21-0.88-0.21h-1v1.94h1.06    C127.78,120.23,128.09,120.22,128.34,120.05z"/>
		<path class="st1" d="M134.46,114.67v6.52h-1.23v-6.52H134.46z"/>
		<path class="st1" d="M142.17,114.67v1.02h-2.79v1.61h2.63v1.01h-2.63v1.85h2.87v1.02h-4.1v-6.52H142.17z"/>
		<path class="st1" d="M146.88,118.54v2.64h-1.23v-6.52h2.1c0.69,0,1.24,0.15,1.64,0.46s0.7,0.81,0.7,1.44    c0,1.12-0.61,1.58-1.41,1.82l1.76,2.79H149l-1.54-2.64H146.88z M148.45,117.37c0.25-0.18,0.38-0.4,0.38-0.76    c0-0.36-0.13-0.59-0.38-0.76c-0.24-0.18-0.54-0.21-0.93-0.21h-0.64v1.94h0.64C147.91,117.58,148.21,117.55,148.45,117.37z"/>
		<path class="st1" d="M154.61,117.99v3.2h-1.2v-6.52h1.3l3.24,4.75c0,0-0.02-0.76-0.02-1.54v-3.21h1.2v6.52h-1.24l-3.3-4.81    C154.6,116.38,154.61,117.21,154.61,117.99z"/>
		<path class="st1" d="M162.48,117.94c0-2.1,1.53-3.36,3.41-3.36c1.89,0,3.41,1.27,3.41,3.36s-1.52,3.36-3.41,3.36    C164.01,121.3,162.48,120.04,162.48,117.94z M165.89,115.65c-1.21,0-2.14,0.87-2.14,2.29c0,1.42,0.94,2.29,2.14,2.29    c1.21,0,2.14-0.88,2.14-2.29C168.03,116.51,167.1,115.65,165.89,115.65z"/>
		<path class="st1" d="M178.98,114.67c1.13,0,1.97,0.37,2.47,0.82c0.51,0.44,1.04,1.19,1.04,2.43c0,1.25-0.53,2.01-1.04,2.45    c-0.5,0.44-1.34,0.81-2.47,0.81h-2.09v-6.52H178.98z M180.57,119.61c0.31-0.3,0.65-0.8,0.65-1.68c0-0.87-0.34-1.4-0.65-1.7    c-0.32-0.29-0.84-0.53-1.55-0.53h-0.91v4.45h0.91C179.73,120.15,180.25,119.91,180.57,119.61z"/>
		<path class="st1" d="M189.85,114.67v1.02h-2.79v1.61h2.63v1.01h-2.63v1.85h2.87v1.02h-4.1v-6.52H189.85z"/>
		<path class="st1" d="M203.19,116.27l-1.74,4.95h-0.86l-1.7-4.95h-0.03l-0.35,4.92h-1.18l0.54-6.52h1.61l1.58,4.67h0.02l1.6-4.67    h1.56l0.56,6.52h-1.21l-0.38-4.92H203.19z"/>
		<path class="st1" d="M209.45,114.67v6.52h-1.23v-6.52H209.45z"/>
		<path class="st1" d="M216.16,121.3c-1.91,0-3.38-1.29-3.38-3.36c0-2.07,1.49-3.36,3.38-3.36c1.27,0,2.01,0.54,2.28,0.8l-0.43,1    c-0.19-0.25-0.93-0.75-1.85-0.75c-1.13,0-2.11,0.75-2.11,2.29c0,1.41,0.88,2.32,2.18,2.32c0.87,0,1.47-0.38,1.86-0.79l0.43,0.93    C218.15,120.77,217.44,121.3,216.16,121.3z"/>
		<path class="st1" d="M222.94,118.31v2.88h-1.23v-6.52h1.23v2.61h3.04v-2.61h1.22v6.52h-1.22v-2.88H222.94z"/>
		<path class="st1" d="M230.54,117.94c0-2.1,1.53-3.36,3.41-3.36c1.89,0,3.41,1.27,3.41,3.36s-1.52,3.36-3.41,3.36    C232.07,121.3,230.54,120.04,230.54,117.94z M233.95,115.65c-1.21,0-2.14,0.87-2.14,2.29c0,1.42,0.94,2.29,2.14,2.29    c1.21,0,2.14-0.88,2.14-2.29C236.09,116.51,235.16,115.65,233.95,115.65z"/>
		<path class="st1" d="M241.69,119.69l-0.57,1.5h-1.27l2.56-6.52h1.19l2.56,6.52h-1.34l-0.57-1.5H241.69z M243.94,118.7l-0.97-2.63    l-0.98,2.63H243.94z"/>
		<path class="st1" d="M252.02,121.3c-1.91,0-3.38-1.29-3.38-3.36c0-2.07,1.49-3.36,3.38-3.36c1.27,0,2.01,0.54,2.28,0.8l-0.43,1    c-0.19-0.25-0.93-0.75-1.85-0.75c-1.13,0-2.11,0.75-2.11,2.29c0,1.41,0.88,2.32,2.18,2.32c0.87,0,1.47-0.38,1.86-0.79l0.43,0.93    C254.01,120.77,253.3,121.3,252.02,121.3z"/>
		<path class="st1" d="M258.79,119.69l-0.57,1.5h-1.27l2.56-6.52h1.19l2.56,6.52h-1.34l-0.57-1.5H258.79z M261.05,118.7l-0.97-2.63    l-0.98,2.63H261.05z M261.51,112.87l-1.01,1.37h-0.88l0.79-1.37H261.51z"/>
		<path class="st1" d="M267.48,117.99v3.2h-1.2v-6.52h1.3l3.24,4.75c0,0-0.02-0.76-0.02-1.54v-3.21h1.2v6.52h-1.24l-3.3-4.81    C267.46,116.38,267.48,117.21,267.48,117.99z"/>
	</g>
</g>
</svg>